# Blender 3.5.0
# www.blender.org
mtllib A_01f_1_obj.mtl
o A_01f_1
v -15.300830 -10.510250 0.000000
v -14.650000 -10.361700 -5.000000
v -14.650000 -10.361700 0.000000
v -15.300830 -10.510250 -5.000000
v -15.822750 -10.926470 0.000000
v -15.822750 -10.926470 -5.000000
v -16.112391 -11.527920 0.000000
v -16.112391 -11.527920 -5.000000
v -16.112391 -12.195480 0.000000
v -16.112391 -12.195480 -5.000000
v -15.822750 -12.796940 0.000000
v -15.822750 -12.796940 -5.000000
v -15.300830 -13.213160 0.000000
v -15.300830 -13.213160 -5.000000
v -14.650000 -13.361700 0.000000
v -14.650000 -13.361700 -5.000000
v -2.429389 16.117941 0.000000
v 0.000000 16.299999 -5.000000
v 0.000000 16.299999 0.000000
v -2.429389 16.117941 -5.000000
v -4.804509 15.575840 0.000000
v -4.804509 15.575840 -5.000000
v -7.072305 14.685790 0.000000
v -7.072305 14.685790 -5.000000
v -9.182117 13.467690 0.000000
v -9.182117 13.467690 -5.000000
v -11.086820 11.948750 0.000000
v -12.743850 10.162880 -5.000000
v -11.086820 11.948750 -5.000000
v -12.743850 10.162880 0.000000
v -14.116210 8.150000 0.000000
v -14.116210 8.150000 -5.000000
v -15.173240 5.955059 0.000000
v -15.173240 5.955059 -5.000000
v -15.891320 3.627091 0.000000
v -15.891320 3.627091 -5.000000
v -16.254419 1.218101 0.000000
v -16.254419 1.218101 -5.000000
v -16.254419 -1.218101 0.000000
v -15.891320 -3.627091 -5.000000
v -16.254419 -1.218101 -5.000000
v -15.891320 -3.627091 0.000000
v -15.173240 -5.955059 0.000000
v -14.116210 -8.150000 -5.000000
v -15.173240 -5.955059 -5.000000
v -14.116210 -8.150000 0.000000
v -12.743850 -10.162880 0.000000
v -11.086820 -11.948750 -5.000000
v -12.743850 -10.162880 -5.000000
v -11.086820 -11.948750 0.000000
v -9.182117 -13.467690 -5.000000
v -9.182117 -13.467690 0.000000
v -7.072305 -14.685790 0.000000
v -7.072305 -14.685790 -5.000000
v -4.804509 -15.575840 0.000000
v -2.429389 -16.117941 -5.000000
v -4.804509 -15.575840 -5.000000
v -2.429389 -16.117941 0.000000
v 0.000000 -16.299999 0.000000
v 0.000000 -16.299999 -5.000000
v 13.999170 -10.510250 0.000000
v 14.650000 -10.361700 -5.000000
v 14.650000 -10.361700 0.000000
v 13.999170 -10.510250 -5.000000
v 13.477250 -10.926470 0.000000
v 13.477250 -10.926470 -5.000000
v 13.187610 -11.527920 0.000000
v 13.187610 -11.527920 -5.000000
v 13.187610 -12.195480 0.000000
v 13.187610 -12.195480 -5.000000
v 13.477250 -12.796940 0.000000
v 13.477250 -12.796940 -5.000000
v 13.999170 -13.213160 0.000000
v 13.999170 -13.213160 -5.000000
v 14.650000 -13.361700 0.000000
v 14.650000 -13.361700 -5.000000
v -8.230199 -26.763109 0.000000
v -10.846670 -25.813749 -5.000000
v -8.230199 -26.763109 -5.000000
v -10.846670 -25.813749 0.000000
v -5.532402 -27.448000 0.000000
v -5.532402 -27.448000 -5.000000
v -2.779936 -27.861660 0.000000
v -2.779936 -27.861660 -5.000000
v 0.000000 -28.000000 0.000000
v 0.000000 -28.000000 -5.000000
v 2.779936 -27.861660 0.000000
v 2.779936 -27.861660 -5.000000
v 5.532402 -27.448000 0.000000
v 5.532402 -27.448000 -5.000000
v 8.230199 -26.763109 0.000000
v 8.230199 -26.763109 -5.000000
v 10.846670 -25.813749 0.000000
v 10.846670 -25.813749 -5.000000
v -20.323610 7.742258 0.000000
v -19.863750 14.694200 -5.000000
v -20.323610 7.742258 -5.000000
v -19.863750 14.694200 0.000000
v -20.498220 0.777314 0.000000
v -20.498220 0.777314 -5.000000
v -20.387310 -6.188936 0.000000
v -20.387310 -6.188936 -5.000000
v -19.991051 -13.144790 0.000000
v -19.991051 -13.144790 -5.000000
v 10.586040 25.921721 0.000000
v 13.386770 24.592569 0.000000
v 13.386770 24.592569 -5.000000
v 10.586040 25.921721 -5.000000
v 7.655535 26.933121 0.000000
v 7.655535 26.933121 -5.000000
v 4.631185 27.614349 0.000000
v 4.631185 27.614349 -5.000000
v 1.550062 27.957060 -5.000000
v 1.550062 27.957060 0.000000
v -1.550062 27.957060 0.000000
v -1.550062 27.957060 -5.000000
v -4.631185 27.614349 0.000000
v -4.631185 27.614349 -5.000000
v -7.655535 26.933121 0.000000
v -7.655535 26.933121 -5.000000
v -10.586040 25.921721 -5.000000
v -10.586040 25.921721 0.000000
v -13.386770 24.592569 -5.000000
v -13.386770 24.592569 0.000000
v 15.300830 -13.213160 0.000000
v 15.300830 -13.213160 -5.000000
v 15.822750 -12.796940 0.000000
v 15.822750 -12.796940 -5.000000
v 16.112391 -12.195480 0.000000
v 16.112391 -12.195480 -5.000000
v 16.112391 -11.527920 0.000000
v 16.112391 -11.527920 -5.000000
v 15.822750 -10.926470 0.000000
v 15.822750 -10.926470 -5.000000
v 15.300830 -10.510250 0.000000
v 15.300830 -10.510250 -5.000000
v 2.429389 -16.117941 0.000000
v 2.429389 -16.117941 -5.000000
v 4.804509 -15.575840 0.000000
v 4.804509 -15.575840 -5.000000
v 7.072305 -14.685790 0.000000
v 9.182117 -13.467690 -5.000000
v 7.072305 -14.685790 -5.000000
v 9.182117 -13.467690 0.000000
v 11.086820 -11.948750 0.000000
v 11.086820 -11.948750 -5.000000
v 12.743850 -10.162880 0.000000
v 12.743850 -10.162880 -5.000000
v 14.116210 -8.150000 0.000000
v 14.116210 -8.150000 -5.000000
v 15.173240 -5.955059 0.000000
v 15.173240 -5.955059 -5.000000
v 15.891320 -3.627091 0.000000
v 15.891320 -3.627091 -5.000000
v 16.254419 -1.218101 0.000000
v 16.254419 -1.218101 -5.000000
v 16.254419 1.218101 0.000000
v 15.891320 3.627091 -5.000000
v 16.254419 1.218101 -5.000000
v 15.891320 3.627091 0.000000
v 15.173240 5.955059 0.000000
v 15.173240 5.955059 -5.000000
v 14.116210 8.150000 0.000000
v 14.116210 8.150000 -5.000000
v 12.743850 10.162880 0.000000
v 11.086820 11.948750 -5.000000
v 12.743850 10.162880 -5.000000
v 11.086820 11.948750 0.000000
v 9.182117 13.467690 -5.000000
v 9.182117 13.467690 0.000000
v 7.072305 14.685790 0.000000
v 7.072305 14.685790 -5.000000
v 4.804509 15.575840 0.000000
v 2.429389 16.117941 -5.000000
v 4.804509 15.575840 -5.000000
v 2.429389 16.117941 0.000000
v 20.387310 -6.188936 0.000000
v 19.991051 -13.144790 0.000000
v 19.991051 -13.144790 -5.000000
v 20.387310 -6.188936 -5.000000
v 20.498220 0.777314 0.000000
v 20.498220 0.777314 -5.000000
v 20.323610 7.742258 0.000000
v 20.323610 7.742258 -5.000000
v 19.863750 14.694200 -5.000000
v 19.863750 14.694200 0.000000
v -13.999170 -13.213160 0.000000
v -13.999170 -13.213160 -5.000000
v -13.477250 -12.796940 0.000000
v -13.477250 -12.796940 -5.000000
v -13.187610 -12.195480 0.000000
v -13.187610 -12.195480 -5.000000
v -13.187610 -11.527920 0.000000
v -13.187610 -11.527920 -5.000000
v -13.477250 -10.926470 0.000000
v -13.477250 -10.926470 -5.000000
v -13.999170 -10.510250 0.000000
v -13.999170 -10.510250 -5.000000
v -19.627451 -15.461770 -5.000000
v -18.907129 -17.693750 -5.000000
v -16.475071 -21.687870 -5.000000
v -17.847710 -19.786169 -5.000000
v -14.822780 -23.352360 -5.000000
v -12.931230 -24.738960 -5.000000
v 14.822780 -23.352360 -5.000000
v 12.931230 -24.738960 -5.000000
v 16.475071 -21.687870 -5.000000
v -19.519341 16.716440 -5.000000
v -18.848820 18.655130 -5.000000
v 18.907129 -17.693750 -5.000000
v 17.847710 -19.786169 -5.000000
v -17.870251 20.458040 -5.000000
v 19.627451 -15.461770 -5.000000
v -16.609980 22.076620 -5.000000
v -15.101950 23.467279 -5.000000
v 19.519341 16.716440 -5.000000
v 18.848820 18.655130 -5.000000
v 17.870251 20.458040 -5.000000
v 15.101950 23.467279 -5.000000
v 16.609980 22.076620 -5.000000
v -19.627451 -15.461770 0.000000
v -18.907129 -17.693750 0.000000
v -17.847710 -19.786169 0.000000
v -16.475071 -21.687870 0.000000
v -14.822780 -23.352360 0.000000
v -12.931230 -24.738960 0.000000
v 12.931230 -24.738960 0.000000
v 14.822780 -23.352360 0.000000
v 16.475071 -21.687870 0.000000
v -18.848820 18.655130 0.000000
v -19.519341 16.716440 0.000000
v 17.847710 -19.786169 0.000000
v 18.907129 -17.693750 0.000000
v -17.870251 20.458040 0.000000
v 19.627451 -15.461770 0.000000
v -16.609980 22.076620 0.000000
v -15.101950 23.467279 0.000000
v 19.519341 16.716440 0.000000
v 18.848820 18.655130 0.000000
v 17.870251 20.458040 0.000000
v 15.101950 23.467279 0.000000
v 16.609980 22.076620 0.000000
vn 0.2225 -0.9749 -0.0000
vn 0.6235 -0.7818 -0.0000
vn 0.9010 -0.4339 -0.0000
vn 1.0000 -0.0000 -0.0000
vn 0.9010 0.4339 -0.0000
vn 0.6235 0.7818 -0.0000
vn 0.2225 0.9749 -0.0000
vn 0.0747 -0.9972 -0.0000
vn 0.3653 -0.9309 -0.0000
vn 0.5000 -0.8660 -0.0000
vn 0.7331 -0.6802 -0.0000
vn 0.8262 -0.5633 -0.0000
vn 0.9556 -0.2948 -0.0000
vn 0.9888 -0.1490 -0.0000
vn 0.9888 0.1490 -0.0000
vn 0.9556 0.2948 -0.0000
vn 0.8262 0.5633 -0.0000
vn 0.7331 0.6802 -0.0000
vn 0.5000 0.8660 -0.0000
vn 0.3653 0.9309 -0.0000
vn 0.0747 0.9972 -0.0000
vn -0.3411 -0.9400 -0.0000
vn -0.2461 -0.9693 -0.0000
vn -0.1486 -0.9889 -0.0000
vn -0.0497 -0.9988 -0.0000
vn 0.0497 -0.9988 -0.0000
vn 0.1486 -0.9889 -0.0000
vn 0.2461 -0.9693 -0.0000
vn 0.3411 -0.9400 -0.0000
vn -0.9978 0.0660 -0.0000
vn -0.9997 0.0251 -0.0000
vn -0.9999 -0.0159 -0.0000
vn -0.9984 -0.0569 -0.0000
vn 0.4287 0.9034 -0.0000
vn 0.3262 0.9453 -0.0000
vn 0.1105 0.9939 -0.0000
vn 0.2197 0.9756 -0.0000
vn -0.0000 1.0000 -0.0000
vn -0.1105 0.9939 -0.0000
vn -0.3262 0.9453 -0.0000
vn -0.2197 0.9756 -0.0000
vn -0.4287 0.9034 -0.0000
vn -0.2225 0.9749 -0.0000
vn -0.6235 0.7818 -0.0000
vn -0.9010 0.4339 -0.0000
vn -1.0000 -0.0000 -0.0000
vn -0.9010 -0.4339 -0.0000
vn -0.6235 -0.7818 -0.0000
vn -0.2225 -0.9749 -0.0000
vn -0.0747 0.9972 -0.0000
vn -0.5000 0.8660 -0.0000
vn -0.3653 0.9309 -0.0000
vn -0.7331 0.6802 -0.0000
vn -0.8262 0.5633 -0.0000
vn -0.9556 0.2948 -0.0000
vn -0.9888 0.1490 -0.0000
vn -0.9888 -0.1490 -0.0000
vn -0.9556 -0.2948 -0.0000
vn -0.8262 -0.5633 -0.0000
vn -0.7331 -0.6802 -0.0000
vn -0.5000 -0.8660 -0.0000
vn -0.3653 -0.9309 -0.0000
vn -0.0747 -0.9972 -0.0000
vn 0.9984 -0.0569 -0.0000
vn 0.9999 -0.0159 -0.0000
vn 0.9997 0.0251 -0.0000
vn 0.9978 0.0660 -0.0000
vn -0.0000 -0.0000 -1.0000
vn -0.0000 -0.0000 1.0000
vn 0.9858 0.1679 -0.0000
vn 0.9451 0.3269 -0.0000
vn 0.8789 0.4770 -0.0000
vn 0.6779 0.7351 -0.0000
vn 0.7890 0.6144 -0.0000
vn 0.5486 0.8361 -0.0000
vn -0.5486 0.8361 -0.0000
vn -0.6779 0.7351 -0.0000
vn -0.7890 0.6144 -0.0000
vn -0.9451 0.3269 -0.0000
vn -0.8789 0.4770 -0.0000
vn -0.9858 0.1679 -0.0000
vn 0.4583 -0.8888 -0.0000
vn 0.5912 -0.8065 -0.0000
vn 0.7097 -0.7045 -0.0000
vn 0.8108 -0.5853 -0.0000
vn 0.8922 -0.4517 -0.0000
vn 0.9517 -0.3071 -0.0000
vn 0.9879 -0.1550 -0.0000
vn -0.9879 -0.1550 -0.0000
vn -0.9517 -0.3071 -0.0000
vn -0.8108 -0.5853 -0.0000
vn -0.8922 -0.4517 -0.0000
vn -0.7097 -0.7045 -0.0000
vn -0.5912 -0.8065 -0.0000
vn -0.4583 -0.8888 -0.0000
s 0
f 1//1 2//1 3//1
f 1//1 4//1 2//1
f 5//2 6//2 4//2
f 5//2 4//2 1//2
f 7//3 8//3 6//3
f 7//3 6//3 5//3
f 9//4 10//4 8//4
f 9//4 8//4 7//4
f 11//5 12//5 10//5
f 11//5 10//5 9//5
f 13//6 14//6 12//6
f 13//6 12//6 11//6
f 15//7 16//7 14//7
f 15//7 14//7 13//7
f 17//8 18//8 19//8
f 17//8 20//8 18//8
f 21//1 22//1 20//1
f 21//1 20//1 17//1
f 23//9 24//9 22//9
f 23//9 22//9 21//9
f 25//10 26//10 24//10
f 25//10 24//10 23//10
f 27//11 28//11 29//11
f 27//2 29//2 26//2
f 27//2 26//2 25//2
f 30//11 28//11 27//11
f 31//12 32//12 28//12
f 31//12 28//12 30//12
f 33//3 34//3 32//3
f 33//3 32//3 31//3
f 35//13 36//13 34//13
f 35//13 34//13 33//13
f 37//14 38//14 36//14
f 37//14 36//14 35//14
f 39//15 40//15 41//15
f 39//4 41//4 38//4
f 39//4 38//4 37//4
f 42//15 40//15 39//15
f 43//5 44//5 45//5
f 43//16 45//16 40//16
f 43//16 40//16 42//16
f 46//5 44//5 43//5
f 47//17 44//17 46//17
f 47//18 48//18 49//18
f 47//17 49//17 44//17
f 50//18 48//18 47//18
f 50//6 51//6 48//6
f 52//6 51//6 50//6
f 53//19 51//19 52//19
f 53//19 54//19 51//19
f 55//20 54//20 53//20
f 55//7 56//7 57//7
f 55//20 57//20 54//20
f 58//7 56//7 55//7
f 59//21 60//21 56//21
f 59//21 56//21 58//21
f 61//1 62//1 63//1
f 61//1 64//1 62//1
f 65//2 66//2 64//2
f 65//2 64//2 61//2
f 67//3 68//3 66//3
f 67//3 66//3 65//3
f 69//4 70//4 68//4
f 69//4 68//4 67//4
f 71//5 72//5 70//5
f 71//5 70//5 69//5
f 73//6 74//6 72//6
f 73//6 72//6 71//6
f 75//7 76//7 74//7
f 75//7 74//7 73//7
f 77//22 78//22 79//22
f 77//22 80//22 78//22
f 81//23 79//23 82//23
f 81//23 77//23 79//23
f 83//24 82//24 84//24
f 83//24 81//24 82//24
f 85//25 84//25 86//25
f 85//25 83//25 84//25
f 87//26 85//26 86//26
f 87//26 86//26 88//26
f 89//27 88//27 90//27
f 89//27 87//27 88//27
f 91//28 90//28 92//28
f 91//28 89//28 90//28
f 93//29 92//29 94//29
f 93//29 91//29 92//29
f 95//30 96//30 97//30
f 95//30 98//30 96//30
f 99//31 97//31 100//31
f 99//31 95//31 97//31
f 101//32 100//32 102//32
f 101//32 99//32 100//32
f 103//33 102//33 104//33
f 103//33 101//33 102//33
f 105//34 106//34 107//34
f 105//34 107//34 108//34
f 109//35 108//35 110//35
f 109//35 105//35 108//35
f 111//36 112//36 113//36
f 111//37 110//37 112//37
f 111//37 109//37 110//37
f 114//36 111//36 113//36
f 115//38 113//38 116//38
f 115//38 114//38 113//38
f 117//39 116//39 118//39
f 117//39 115//39 116//39
f 119//40 120//40 121//40
f 119//41 118//41 120//41
f 119//41 117//41 118//41
f 122//42 121//42 123//42
f 122//40 119//40 121//40
f 124//42 122//42 123//42
f 125//43 76//43 75//43
f 125//43 126//43 76//43
f 127//44 128//44 126//44
f 127//44 126//44 125//44
f 129//45 130//45 128//45
f 129//45 128//45 127//45
f 131//46 132//46 130//46
f 131//46 130//46 129//46
f 133//47 134//47 132//47
f 133//47 132//47 131//47
f 135//48 136//48 134//48
f 135//48 134//48 133//48
f 63//49 62//49 136//49
f 63//49 136//49 135//49
f 137//50 60//50 59//50
f 137//50 138//50 60//50
f 139//43 140//43 138//43
f 139//43 138//43 137//43
f 141//51 142//51 143//51
f 141//52 143//52 140//52
f 141//52 140//52 139//52
f 144//51 142//51 141//51
f 145//44 146//44 142//44
f 145//44 142//44 144//44
f 147//53 148//53 146//53
f 147//53 146//53 145//53
f 149//54 150//54 148//54
f 149//54 148//54 147//54
f 151//45 152//45 150//45
f 151//45 150//45 149//45
f 153//55 154//55 152//55
f 153//55 152//55 151//55
f 155//56 156//56 154//56
f 155//56 154//56 153//56
f 157//57 158//57 159//57
f 157//46 159//46 156//46
f 157//46 156//46 155//46
f 160//57 158//57 157//57
f 161//58 162//58 158//58
f 161//58 158//58 160//58
f 163//47 162//47 161//47
f 163//47 164//47 162//47
f 165//59 164//59 163//59
f 165//60 166//60 167//60
f 165//59 167//59 164//59
f 168//60 166//60 165//60
f 168//48 169//48 166//48
f 170//48 169//48 168//48
f 171//61 169//61 170//61
f 171//61 172//61 169//61
f 173//49 174//49 175//49
f 173//62 175//62 172//62
f 173//62 172//62 171//62
f 176//49 174//49 173//49
f 19//63 18//63 174//63
f 19//63 174//63 176//63
f 177//64 178//64 179//64
f 177//64 179//64 180//64
f 181//65 180//65 182//65
f 181//65 177//65 180//65
f 183//66 182//66 184//66
f 183//67 184//67 185//67
f 183//66 181//66 182//66
f 186//67 183//67 185//67
f 187//43 16//43 15//43
f 187//43 188//43 16//43
f 189//44 190//44 188//44
f 189//44 188//44 187//44
f 191//45 192//45 190//45
f 191//45 190//45 189//45
f 193//46 194//46 192//46
f 193//46 192//46 191//46
f 195//47 196//47 194//47
f 195//47 194//47 193//47
f 197//48 198//48 196//48
f 197//48 196//48 195//48
f 3//49 2//49 198//49
f 3//49 198//49 197//49
f 12//68 199//68 104//68
f 14//68 200//68 199//68
f 14//68 199//68 12//68
f 10//68 12//68 104//68
f 16//68 201//68 202//68
f 16//68 202//68 200//68
f 16//68 200//68 14//68
f 8//68 10//68 104//68
f 188//68 201//68 16//68
f 6//68 8//68 104//68
f 102//68 6//68 104//68
f 48//68 190//68 192//68
f 48//68 192//68 194//68
f 49//68 194//68 196//68
f 49//68 196//68 198//68
f 49//68 48//68 194//68
f 51//68 188//68 190//68
f 51//68 203//68 201//68
f 51//68 190//68 48//68
f 51//68 201//68 188//68
f 44//68 198//68 2//68
f 44//68 2//68 4//68
f 44//68 49//68 198//68
f 54//68 78//68 204//68
f 54//68 204//68 203//68
f 54//68 203//68 51//68
f 45//68 4//68 6//68
f 45//68 6//68 102//68
f 45//68 44//68 4//68
f 57//68 82//68 79//68
f 57//68 79//68 78//68
f 57//68 78//68 54//68
f 40//68 45//68 102//68
f 56//68 84//68 82//68
f 56//68 82//68 57//68
f 41//68 102//68 100//68
f 41//68 40//68 102//68
f 60//68 88//68 86//68
f 60//68 86//68 84//68
f 60//68 84//68 56//68
f 38//68 41//68 100//68
f 138//68 88//68 60//68
f 138//68 90//68 88//68
f 36//68 38//68 100//68
f 36//68 100//68 97//68
f 140//68 94//68 92//68
f 140//68 92//68 90//68
f 140//68 90//68 138//68
f 34//68 36//68 97//68
f 143//68 94//68 140//68
f 143//68 205//68 206//68
f 143//68 206//68 94//68
f 32//68 34//68 97//68
f 96//68 32//68 97//68
f 142//68 207//68 205//68
f 142//68 205//68 143//68
f 28//68 32//68 96//68
f 72//68 142//68 146//68
f 74//68 207//68 142//68
f 74//68 142//68 72//68
f 29//68 96//68 208//68
f 29//68 208//68 209//68
f 29//68 28//68 96//68
f 70//68 72//68 146//68
f 76//68 210//68 211//68
f 76//68 211//68 207//68
f 76//68 207//68 74//68
f 68//68 70//68 146//68
f 126//68 210//68 76//68
f 148//68 68//68 146//68
f 148//68 66//68 68//68
f 212//68 29//68 209//68
f 64//68 66//68 148//68
f 213//68 126//68 128//68
f 213//68 210//68 126//68
f 26//68 29//68 212//68
f 214//68 26//68 212//68
f 150//68 136//68 62//68
f 150//68 64//68 148//68
f 150//68 62//68 64//68
f 179//68 132//68 134//68
f 179//68 130//68 132//68
f 179//68 128//68 130//68
f 179//68 213//68 128//68
f 215//68 24//68 26//68
f 215//68 26//68 214//68
f 152//68 134//68 136//68
f 152//68 136//68 150//68
f 123//68 24//68 215//68
f 180//68 179//68 134//68
f 180//68 152//68 154//68
f 180//68 134//68 152//68
f 156//68 180//68 154//68
f 121//68 24//68 123//68
f 121//68 22//68 24//68
f 120//68 22//68 121//68
f 120//68 20//68 22//68
f 182//68 180//68 156//68
f 182//68 159//68 158//68
f 182//68 156//68 159//68
f 118//68 20//68 120//68
f 116//68 20//68 118//68
f 116//68 18//68 20//68
f 184//68 182//68 158//68
f 184//68 162//68 164//68
f 184//68 158//68 162//68
f 113//68 18//68 116//68
f 113//68 174//68 18//68
f 112//68 174//68 113//68
f 185//68 184//68 164//68
f 185//68 167//68 166//68
f 185//68 164//68 167//68
f 110//68 174//68 112//68
f 110//68 175//68 174//68
f 216//68 185//68 166//68
f 108//68 175//68 110//68
f 108//68 172//68 175//68
f 217//68 216//68 166//68
f 107//68 172//68 108//68
f 218//68 217//68 166//68
f 218//68 166//68 169//68
f 219//68 172//68 107//68
f 219//68 169//68 172//68
f 220//68 218//68 169//68
f 220//68 169//68 219//68
f 11//69 103//69 221//69
f 13//69 221//69 222//69
f 13//69 11//69 221//69
f 9//69 103//69 11//69
f 15//69 222//69 223//69
f 15//69 223//69 224//69
f 15//69 13//69 222//69
f 7//69 103//69 9//69
f 187//69 15//69 224//69
f 5//69 103//69 7//69
f 101//69 103//69 5//69
f 50//69 191//69 189//69
f 50//69 193//69 191//69
f 47//69 195//69 193//69
f 47//69 197//69 195//69
f 47//69 193//69 50//69
f 52//69 224//69 225//69
f 52//69 189//69 187//69
f 52//69 187//69 224//69
f 52//69 50//69 189//69
f 46//69 1//69 3//69
f 46//69 3//69 197//69
f 46//69 197//69 47//69
f 53//69 225//69 226//69
f 53//69 226//69 80//69
f 53//69 52//69 225//69
f 43//69 5//69 1//69
f 43//69 101//69 5//69
f 43//69 1//69 46//69
f 55//69 77//69 81//69
f 55//69 80//69 77//69
f 55//69 53//69 80//69
f 42//69 101//69 43//69
f 58//69 81//69 83//69
f 58//69 55//69 81//69
f 39//69 99//69 101//69
f 39//69 101//69 42//69
f 59//69 58//69 83//69
f 59//69 83//69 85//69
f 59//69 85//69 87//69
f 37//69 99//69 39//69
f 137//69 87//69 89//69
f 137//69 59//69 87//69
f 35//69 95//69 99//69
f 35//69 99//69 37//69
f 139//69 137//69 89//69
f 139//69 91//69 93//69
f 139//69 89//69 91//69
f 33//69 95//69 35//69
f 141//69 139//69 93//69
f 141//69 93//69 227//69
f 141//69 227//69 228//69
f 31//69 95//69 33//69
f 98//69 95//69 31//69
f 144//69 141//69 228//69
f 144//69 228//69 229//69
f 30//69 98//69 31//69
f 71//69 145//69 144//69
f 73//69 144//69 229//69
f 73//69 71//69 144//69
f 27//69 230//69 231//69
f 27//69 231//69 98//69
f 27//69 98//69 30//69
f 69//69 145//69 71//69
f 75//69 229//69 232//69
f 75//69 232//69 233//69
f 75//69 73//69 229//69
f 67//69 145//69 69//69
f 125//69 75//69 233//69
f 147//69 67//69 65//69
f 147//69 145//69 67//69
f 234//69 230//69 27//69
f 61//69 147//69 65//69
f 235//69 125//69 233//69
f 235//69 127//69 125//69
f 25//69 234//69 27//69
f 236//69 234//69 25//69
f 149//69 61//69 63//69
f 149//69 147//69 61//69
f 149//69 63//69 135//69
f 178//69 127//69 235//69
f 178//69 133//69 131//69
f 178//69 131//69 129//69
f 178//69 129//69 127//69
f 237//69 236//69 25//69
f 237//69 25//69 23//69
f 151//69 149//69 135//69
f 151//69 135//69 133//69
f 124//69 237//69 23//69
f 177//69 153//69 151//69
f 177//69 133//69 178//69
f 177//69 151//69 133//69
f 155//69 153//69 177//69
f 122//69 124//69 23//69
f 122//69 23//69 21//69
f 119//69 122//69 21//69
f 119//69 21//69 17//69
f 181//69 155//69 177//69
f 181//69 160//69 157//69
f 181//69 157//69 155//69
f 117//69 119//69 17//69
f 115//69 117//69 17//69
f 115//69 17//69 19//69
f 183//69 160//69 181//69
f 183//69 163//69 161//69
f 183//69 161//69 160//69
f 114//69 115//69 19//69
f 114//69 19//69 176//69
f 111//69 114//69 176//69
f 186//69 163//69 183//69
f 186//69 168//69 165//69
f 186//69 165//69 163//69
f 109//69 111//69 176//69
f 109//69 176//69 173//69
f 238//69 168//69 186//69
f 105//69 109//69 173//69
f 105//69 173//69 171//69
f 239//69 168//69 238//69
f 106//69 105//69 171//69
f 240//69 170//69 168//69
f 240//69 168//69 239//69
f 241//69 171//69 170//69
f 241//69 106//69 171//69
f 242//69 170//69 240//69
f 242//69 241//69 170//69
f 186//70 185//70 216//70
f 238//71 216//71 217//71
f 238//70 186//70 216//70
f 239//72 217//72 218//72
f 239//71 238//71 217//71
f 240//72 239//72 218//72
f 242//73 220//73 219//73
f 242//74 218//74 220//74
f 242//74 240//74 218//74
f 241//73 242//73 219//73
f 106//75 219//75 107//75
f 106//75 241//75 219//75
f 124//76 123//76 215//76
f 237//77 215//77 214//77
f 237//76 124//76 215//76
f 236//78 214//78 212//78
f 236//77 237//77 214//77
f 234//78 236//78 212//78
f 230//79 209//79 208//79
f 230//80 212//80 209//80
f 230//80 234//80 212//80
f 231//79 230//79 208//79
f 98//81 208//81 96//81
f 98//81 231//81 208//81
f 93//82 94//82 206//82
f 227//83 206//83 205//83
f 227//82 93//82 206//82
f 228//84 205//84 207//84
f 228//83 227//83 205//83
f 229//85 207//85 211//85
f 229//84 228//84 207//84
f 232//86 211//86 210//86
f 232//85 229//85 211//85
f 233//87 210//87 213//87
f 233//86 232//86 210//86
f 235//88 213//88 179//88
f 235//87 233//87 213//87
f 178//88 235//88 179//88
f 221//89 104//89 199//89
f 221//89 103//89 104//89
f 222//90 199//90 200//90
f 222//90 221//90 199//90
f 223//91 202//91 201//91
f 223//92 200//92 202//92
f 223//92 222//92 200//92
f 224//93 201//93 203//93
f 224//91 223//91 201//91
f 225//94 203//94 204//94
f 225//93 224//93 203//93
f 226//94 225//94 204//94
f 80//95 204//95 78//95
f 80//95 226//95 204//95
