# Blender 3.5.0
# www.blender.org
mtllib A_1f_1_obj.mtl
o A_1f_1
v -15.300830 -10.510250 0.000000
v -14.650000 -10.361700 -5.000000
v -14.650000 -10.361700 0.000000
v -15.300830 -10.510250 -5.000000
v -15.822750 -10.926470 0.000000
v -15.822750 -10.926470 -5.000000
v -16.112391 -11.527920 -5.000000
v -16.112391 -11.527920 0.000000
v -16.112391 -12.195480 0.000000
v -16.112391 -12.195480 -5.000000
v -15.822750 -12.796940 0.000000
v -15.822750 -12.796940 -5.000000
v -15.300830 -13.213160 -5.000000
v -15.300830 -13.213160 0.000000
v -14.650000 -13.361700 0.000000
v -14.650000 -13.361700 -5.000000
v -7.072305 14.685790 0.000000
v 0.000000 16.299999 -5.000000
v 0.000000 16.299999 0.000000
v -7.072305 14.685790 -5.000000
v -12.743850 10.162880 0.000000
v -12.743850 10.162880 -5.000000
v -15.891320 3.627091 0.000000
v -15.891320 3.627091 -5.000000
v -15.891320 -3.627091 0.000000
v -15.891320 -3.627091 -5.000000
v -12.743850 -10.162880 0.000000
v -12.743850 -10.162880 -5.000000
v -7.072305 -14.685790 0.000000
v 0.000000 -16.299999 -5.000000
v -7.072305 -14.685790 -5.000000
v 0.000000 -16.299999 0.000000
v 13.999170 -10.510250 0.000000
v 14.650000 -10.361700 -5.000000
v 14.650000 -10.361700 0.000000
v 13.999170 -10.510250 -5.000000
v 13.477250 -10.926470 0.000000
v 13.187610 -11.527920 -5.000000
v 13.477250 -10.926470 -5.000000
v 13.187610 -11.527920 0.000000
v 13.187610 -12.195480 0.000000
v 13.187610 -12.195480 -5.000000
v 13.477250 -12.796940 0.000000
v 13.999170 -13.213160 -5.000000
v 13.477250 -12.796940 -5.000000
v 13.999170 -13.213160 0.000000
v 14.650000 -13.361700 0.000000
v 14.650000 -13.361700 -5.000000
v -7.338667 -27.021179 0.000000
v -10.846670 -25.813749 -5.000000
v -7.338667 -27.021179 -5.000000
v -10.846670 -25.813749 0.000000
v -3.701828 -27.754219 0.000000
v -3.701828 -27.754219 -5.000000
v 0.000000 -28.000000 0.000000
v 0.000000 -28.000000 -5.000000
v 3.701828 -27.754219 0.000000
v 3.701828 -27.754219 -5.000000
v 7.338667 -27.021179 0.000000
v 7.338667 -27.021179 -5.000000
v 10.846670 -25.813749 0.000000
v 10.846670 -25.813749 -5.000000
v -20.413530 5.421477 0.000000
v -19.863750 14.694200 -5.000000
v -20.413530 5.421477 -5.000000
v -19.863750 14.694200 0.000000
v -20.455999 -3.867430 0.000000
v -20.455999 -3.867430 -5.000000
v -19.991051 -13.144790 0.000000
v -19.991051 -13.144790 -5.000000
v 4.631185 27.614349 0.000000
v 13.386770 24.592569 0.000000
v 13.386770 24.592569 -5.000000
v 4.631185 27.614349 -5.000000
v -4.631185 27.614349 0.000000
v -4.631185 27.614349 -5.000000
v -13.386770 24.592569 -5.000000
v -13.386770 24.592569 0.000000
v 15.300830 -13.213160 0.000000
v 15.300830 -13.213160 -5.000000
v 15.822750 -12.796940 0.000000
v 16.112391 -12.195480 -5.000000
v 15.822750 -12.796940 -5.000000
v 16.112391 -12.195480 0.000000
v 16.112391 -11.527920 0.000000
v 16.112391 -11.527920 -5.000000
v 15.822750 -10.926470 0.000000
v 15.300830 -10.510250 -5.000000
v 15.822750 -10.926470 -5.000000
v 15.300830 -10.510250 0.000000
v 7.072305 -14.685790 0.000000
v 7.072305 -14.685790 -5.000000
v 12.743850 -10.162880 0.000000
v 12.743850 -10.162880 -5.000000
v 15.891320 -3.627091 0.000000
v 15.891320 -3.627091 -5.000000
v 15.891320 3.627091 0.000000
v 15.891320 3.627091 -5.000000
v 12.743850 10.162880 0.000000
v 12.743850 10.162880 -5.000000
v 7.072305 14.685790 0.000000
v 7.072305 14.685790 -5.000000
v 20.455999 -3.867430 0.000000
v 19.991051 -13.144790 0.000000
v 19.991051 -13.144790 -5.000000
v 20.455999 -3.867430 -5.000000
v 20.413530 5.421477 0.000000
v 20.413530 5.421477 -5.000000
v 19.863750 14.694200 0.000000
v 19.863750 14.694200 -5.000000
v -13.999170 -13.213160 0.000000
v -13.999170 -13.213160 -5.000000
v -13.477250 -12.796940 0.000000
v -13.477250 -12.796940 -5.000000
v -13.187610 -12.195480 -5.000000
v -13.187610 -12.195480 0.000000
v -13.187610 -11.527920 0.000000
v -13.187610 -11.527920 -5.000000
v -13.477250 -10.926470 0.000000
v -13.477250 -10.926470 -5.000000
v -13.999170 -10.510250 -5.000000
v -13.999170 -10.510250 0.000000
v -18.590561 -18.409340 -5.000000
v -15.402260 -22.826530 -5.000000
v 15.402260 -22.826530 -5.000000
v -18.848820 18.655130 -5.000000
v 18.590561 -18.409340 -5.000000
v -16.609980 22.076620 -5.000000
v 18.848820 18.655130 -5.000000
v 16.609980 22.076620 -5.000000
v -18.590561 -18.409340 0.000000
v -15.402260 -22.826530 0.000000
v 15.402260 -22.826530 0.000000
v -18.848820 18.655130 0.000000
v 18.590561 -18.409340 0.000000
v -16.609980 22.076620 0.000000
v 18.848820 18.655130 0.000000
v 16.609980 22.076620 0.000000
vn 0.2225 -0.9749 -0.0000
vn 0.6235 -0.7818 -0.0000
vn 0.9010 -0.4339 -0.0000
vn 1.0000 -0.0000 -0.0000
vn 0.9010 0.4339 -0.0000
vn 0.6235 0.7818 -0.0000
vn 0.2225 0.9749 -0.0000
vn -0.3255 -0.9456 -0.0000
vn -0.1976 -0.9803 -0.0000
vn -0.0662 -0.9978 -0.0000
vn 0.0662 -0.9978 -0.0000
vn 0.1976 -0.9803 -0.0000
vn 0.3255 -0.9456 -0.0000
vn -0.9982 0.0592 -0.0000
vn -1.0000 0.0046 -0.0000
vn -0.9987 -0.0501 -0.0000
vn 0.3262 0.9453 -0.0000
vn -0.3262 0.9453 -0.0000
vn -0.0000 1.0000 -0.0000
vn -0.2225 0.9749 -0.0000
vn -0.9010 0.4339 -0.0000
vn -0.6235 0.7818 -0.0000
vn -1.0000 -0.0000 -0.0000
vn -0.6235 -0.7818 -0.0000
vn -0.9010 -0.4339 -0.0000
vn -0.2225 -0.9749 -0.0000
vn 0.9987 -0.0501 -0.0000
vn 1.0000 0.0046 -0.0000
vn 0.9982 0.0592 -0.0000
vn -0.0000 -0.0000 -1.0000
vn -0.0000 -0.0000 1.0000
vn 0.8368 0.5475 -0.0000
vn 0.9687 0.2482 -0.0000
vn 0.6153 0.7883 -0.0000
vn -0.6153 0.7883 -0.0000
vn -0.8368 0.5475 -0.0000
vn -0.9687 0.2482 -0.0000
vn 0.5484 -0.8362 -0.0000
vn 0.5483 -0.8362 -0.0000
vn 0.8108 -0.5853 -0.0000
vn 0.9664 -0.2571 -0.0000
vn -0.9664 -0.2571 -0.0000
vn -0.5484 -0.8362 -0.0000
vn -0.8108 -0.5853 -0.0000
vn -0.5483 -0.8362 -0.0000
s 0
f 1//1 2//1 3//1
f 1//1 4//1 2//1
f 5//2 6//2 4//2
f 5//3 7//3 6//3
f 5//2 4//2 1//2
f 8//3 7//3 5//3
f 9//4 10//4 7//4
f 9//4 7//4 8//4
f 11//5 12//5 10//5
f 11//6 13//6 12//6
f 11//5 10//5 9//5
f 14//6 13//6 11//6
f 15//7 16//7 13//7
f 15//7 13//7 14//7
f 17//1 18//1 19//1
f 17//1 20//1 18//1
f 21//2 22//2 20//2
f 21//2 20//2 17//2
f 23//3 24//3 22//3
f 23//3 22//3 21//3
f 25//4 26//4 24//4
f 25//4 24//4 23//4
f 27//5 28//5 26//5
f 27//5 26//5 25//5
f 29//7 30//7 31//7
f 29//6 31//6 28//6
f 29//6 28//6 27//6
f 32//7 30//7 29//7
f 33//1 34//1 35//1
f 33//1 36//1 34//1
f 37//3 38//3 39//3
f 37//2 39//2 36//2
f 37//2 36//2 33//2
f 40//3 38//3 37//3
f 41//4 42//4 38//4
f 41//4 38//4 40//4
f 43//6 44//6 45//6
f 43//5 45//5 42//5
f 43//5 42//5 41//5
f 46//6 44//6 43//6
f 47//7 48//7 44//7
f 47//7 44//7 46//7
f 49//8 50//8 51//8
f 49//8 52//8 50//8
f 53//9 51//9 54//9
f 53//9 49//9 51//9
f 55//10 54//10 56//10
f 55//10 53//10 54//10
f 57//11 55//11 56//11
f 57//11 56//11 58//11
f 59//12 58//12 60//12
f 59//12 57//12 58//12
f 61//13 60//13 62//13
f 61//13 59//13 60//13
f 63//14 64//14 65//14
f 63//14 66//14 64//14
f 67//15 65//15 68//15
f 67//15 63//15 65//15
f 69//16 68//16 70//16
f 69//16 67//16 68//16
f 71//17 72//17 73//17
f 71//17 73//17 74//17
f 75//18 76//18 77//18
f 75//19 74//19 76//19
f 75//19 71//19 74//19
f 78//18 75//18 77//18
f 79//20 48//20 47//20
f 79//20 80//20 48//20
f 81//21 82//21 83//21
f 81//22 83//22 80//22
f 81//22 80//22 79//22
f 84//21 82//21 81//21
f 85//23 86//23 82//23
f 85//23 82//23 84//23
f 87//24 88//24 89//24
f 87//25 89//25 86//25
f 87//25 86//25 85//25
f 90//24 88//24 87//24
f 35//26 34//26 88//26
f 35//26 88//26 90//26
f 91//20 30//20 32//20
f 91//20 92//20 30//20
f 93//22 94//22 92//22
f 93//22 92//22 91//22
f 95//21 96//21 94//21
f 95//21 94//21 93//21
f 97//23 98//23 96//23
f 97//23 96//23 95//23
f 99//25 100//25 98//25
f 99//25 98//25 97//25
f 101//26 18//26 102//26
f 101//24 102//24 100//24
f 101//24 100//24 99//24
f 19//26 18//26 101//26
f 103//27 104//27 105//27
f 103//27 105//27 106//27
f 107//28 106//28 108//28
f 107//28 103//28 106//28
f 109//29 108//29 110//29
f 109//29 107//29 108//29
f 111//20 16//20 15//20
f 111//20 112//20 16//20
f 113//22 114//22 112//22
f 113//21 115//21 114//21
f 113//22 112//22 111//22
f 116//21 115//21 113//21
f 117//23 118//23 115//23
f 117//23 115//23 116//23
f 119//25 120//25 118//25
f 119//24 121//24 120//24
f 119//25 118//25 117//25
f 122//24 121//24 119//24
f 3//26 2//26 121//26
f 3//26 121//26 122//26
f 12//30 123//30 70//30
f 13//30 123//30 12//30
f 10//30 12//30 70//30
f 16//30 124//30 123//30
f 16//30 123//30 13//30
f 7//30 10//30 70//30
f 112//30 124//30 16//30
f 6//30 7//30 70//30
f 68//30 6//30 70//30
f 68//30 4//30 6//30
f 28//30 115//30 118//30
f 28//30 118//30 120//30
f 28//30 120//30 121//30
f 28//30 121//30 2//30
f 31//30 115//30 28//30
f 31//30 51//30 50//30
f 31//30 50//30 124//30
f 31//30 112//30 114//30
f 31//30 114//30 115//30
f 31//30 124//30 112//30
f 26//30 4//30 68//30
f 26//30 28//30 2//30
f 26//30 2//30 4//30
f 30//30 60//30 58//30
f 30//30 58//30 56//30
f 30//30 56//30 54//30
f 30//30 54//30 51//30
f 30//30 51//30 31//30
f 24//30 26//30 68//30
f 24//30 68//30 65//30
f 92//30 62//30 60//30
f 92//30 60//30 30//30
f 125//30 62//30 92//30
f 22//30 24//30 65//30
f 22//30 65//30 64//30
f 126//30 22//30 64//30
f 44//30 125//30 92//30
f 44//30 92//30 45//30
f 42//30 45//30 92//30
f 48//30 127//30 125//30
f 48//30 125//30 44//30
f 80//30 127//30 48//30
f 94//30 38//30 42//30
f 94//30 39//30 38//30
f 94//30 42//30 92//30
f 83//30 127//30 80//30
f 36//30 39//30 94//30
f 34//30 36//30 94//30
f 105//30 86//30 89//30
f 105//30 82//30 86//30
f 105//30 83//30 82//30
f 105//30 127//30 83//30
f 20//30 126//30 128//30
f 20//30 22//30 126//30
f 77//30 20//30 128//30
f 96//30 88//30 34//30
f 96//30 34//30 94//30
f 106//30 89//30 88//30
f 106//30 105//30 89//30
f 106//30 88//30 96//30
f 98//30 106//30 96//30
f 76//30 18//30 20//30
f 76//30 20//30 77//30
f 108//30 98//30 100//30
f 108//30 106//30 98//30
f 74//30 102//30 18//30
f 74//30 18//30 76//30
f 110//30 108//30 100//30
f 129//30 110//30 100//30
f 129//30 100//30 102//30
f 73//30 102//30 74//30
f 130//30 129//30 102//30
f 130//30 102//30 73//30
f 11//31 69//31 131//31
f 14//31 11//31 131//31
f 9//31 69//31 11//31
f 15//31 131//31 132//31
f 15//31 14//31 131//31
f 8//31 69//31 9//31
f 111//31 15//31 132//31
f 5//31 69//31 8//31
f 67//31 69//31 5//31
f 67//31 5//31 1//31
f 27//31 117//31 116//31
f 27//31 119//31 117//31
f 27//31 122//31 119//31
f 27//31 3//31 122//31
f 29//31 27//31 116//31
f 29//31 52//31 49//31
f 29//31 132//31 52//31
f 29//31 113//31 111//31
f 29//31 116//31 113//31
f 29//31 111//31 132//31
f 25//31 67//31 1//31
f 25//31 1//31 3//31
f 25//31 3//31 27//31
f 32//31 53//31 55//31
f 32//31 49//31 53//31
f 32//31 57//31 59//31
f 32//31 55//31 57//31
f 32//31 29//31 49//31
f 23//31 63//31 67//31
f 23//31 67//31 25//31
f 91//31 59//31 61//31
f 91//31 32//31 59//31
f 133//31 91//31 61//31
f 21//31 66//31 63//31
f 21//31 63//31 23//31
f 134//31 66//31 21//31
f 46//31 91//31 133//31
f 46//31 43//31 91//31
f 41//31 91//31 43//31
f 47//31 133//31 135//31
f 47//31 46//31 133//31
f 79//31 47//31 135//31
f 93//31 91//31 41//31
f 93//31 41//31 40//31
f 93//31 40//31 37//31
f 81//31 79//31 135//31
f 33//31 93//31 37//31
f 35//31 93//31 33//31
f 104//31 87//31 85//31
f 104//31 85//31 84//31
f 104//31 84//31 81//31
f 104//31 81//31 135//31
f 17//31 136//31 134//31
f 17//31 134//31 21//31
f 78//31 136//31 17//31
f 95//31 35//31 90//31
f 95//31 93//31 35//31
f 103//31 95//31 90//31
f 103//31 90//31 87//31
f 103//31 87//31 104//31
f 97//31 95//31 103//31
f 75//31 17//31 19//31
f 75//31 78//31 17//31
f 107//31 99//31 97//31
f 107//31 97//31 103//31
f 71//31 19//31 101//31
f 71//31 75//31 19//31
f 109//31 99//31 107//31
f 137//31 99//31 109//31
f 137//31 101//31 99//31
f 72//31 71//31 101//31
f 138//31 101//31 137//31
f 138//31 72//31 101//31
f 137//32 129//32 130//32
f 137//33 110//33 129//33
f 137//33 109//33 110//33
f 138//32 137//32 130//32
f 72//34 130//34 73//34
f 72//34 138//34 130//34
f 78//35 77//35 128//35
f 136//36 128//36 126//36
f 136//35 78//35 128//35
f 134//36 136//36 126//36
f 66//37 126//37 64//37
f 66//37 134//37 126//37
f 133//38 62//38 125//38
f 133//39 61//39 62//39
f 135//40 125//40 127//40
f 135//40 133//40 125//40
f 104//41 127//41 105//41
f 104//41 135//41 127//41
f 131//42 70//42 123//42
f 131//42 69//42 70//42
f 132//43 124//43 50//43
f 132//44 123//44 124//44
f 132//44 131//44 123//44
f 52//45 132//45 50//45
